<?xml version="1.0" standalone="no"?>
<!DOCTYPE svg PUBLIC "-//W3C//DTD SVG 20010904//EN"
 "http://www.w3.org/TR/2001/REC-SVG-20010904/DTD/svg10.dtd">
<svg version="1.0" xmlns="http://www.w3.org/2000/svg"
 width="16.000000pt" height="16.000000pt" viewBox="0 0 16.000000 16.000000"
 preserveAspectRatio="xMidYMid meet">
<metadata>
Created by potrace 1.11, written by Peter Selinger 2001-2013
</metadata>
<g transform="translate(0.000000,16.000000) scale(0.002500,-0.002500)"
fill="#000000" stroke="none">
<path d="M1820 6135 c-350 -74 -558 -339 -485 -618 31 -121 100 -225 262 -399
235 -251 311 -386 329 -580 16 -180 -53 -324 -189 -396 -46 -24 -63 -27 -147
-27 -84 0 -101 3 -147 27 -131 69 -183 261 -106 386 48 78 133 126 251 139 29
3 54 9 56 12 8 13 -24 85 -49 111 -65 68 -219 94 -333 56 -105 -35 -211 -125
-261 -224 -42 -81 -62 -255 -42 -354 27 -129 120 -253 236 -315 125 -66 317
-94 500 -74 141 16 205 35 324 93 89 44 117 64 191 137 139 140 195 282 195
501 0 144 -15 210 -74 334 -52 108 -106 172 -299 350 -95 88 -181 178 -207
215 -71 102 -97 211 -75 317 10 51 19 66 64 109 60 59 104 75 207 75 98 -1
148 -23 183 -82 52 -90 27 -247 -52 -326 -23 -24 -40 -48 -36 -54 13 -20 90
-48 134 -48 165 0 271 197 214 399 -30 109 -103 179 -233 224 -74 26 -315 33
-411 12z"/>
<path d="M3180 5420 c-130 -21 -247 -86 -349 -195 -194 -209 -311 -522 -311
-835 0 -220 76 -371 220 -439 77 -36 202 -41 298 -12 86 26 195 102 262 182
28 34 52 55 54 47 52 -187 106 -237 265 -246 181 -10 325 58 448 212 l31 38 7
-33 c28 -127 134 -209 283 -217 123 -7 222 28 330 115 l43 35 -7 -28 c-4 -16
-13 -49 -19 -74 l-11 -45 -113 -47 c-187 -79 -281 -153 -342 -268 -19 -36 -24
-60 -24 -120 0 -41 7 -92 14 -114 32 -93 135 -161 265 -175 258 -29 456 104
547 366 15 43 79 318 79 339 0 1 24 10 53 19 149 49 265 137 348 267 49 76
118 226 119 256 0 10 -16 12 -60 10 l-61 -3 -33 -80 c-62 -153 -136 -239 -257
-299 -40 -20 -74 -34 -76 -32 -3 3 268 1295 283 1349 5 16 -10 17 -208 17
l-214 0 -106 -496 c-114 -533 -126 -570 -202 -649 -44 -47 -106 -70 -152 -59
-37 9 -64 59 -64 118 0 39 192 989 216 1069 5 16 -10 17 -210 17 -119 0 -216
-3 -216 -7 0 -21 -202 -957 -214 -990 -34 -98 -93 -180 -147 -209 -33 -17
-108 -19 -142 -3 -29 13 -57 68 -57 109 0 16 50 264 110 550 61 287 110 528
110 536 0 12 -35 14 -209 14 -232 0 -214 6 -227 -76 -7 -48 -8 -48 -18 -22
-16 38 -56 78 -92 94 -41 17 -174 25 -244 14z m254 -191 c24 -11 56 -63 56
-91 0 -41 -154 -729 -170 -764 -48 -99 -136 -167 -220 -168 -60 -1 -96 23
-122 82 -19 41 -20 60 -15 191 10 277 95 519 237 674 27 30 64 62 82 70 38 19
116 22 152 6z m1256 -1471 c0 -7 -7 -42 -14 -78 -18 -84 -55 -167 -96 -213
-27 -32 -38 -37 -75 -37 -127 0 -128 157 -1 248 41 30 160 90 179 92 4 0 7 -6
7 -12z"/>
<path d="M1816 3184 c-174 -32 -402 -133 -534 -239 -202 -162 -302 -333 -302
-515 0 -130 38 -203 127 -246 68 -33 190 -47 180 -20 -32 82 -39 135 -34 231
13 194 70 329 191 451 66 66 199 154 213 141 3 -4 -87 -442 -201 -974 -113
-532 -209 -983 -212 -1001 l-7 -32 213 2 213 3 103 485 c57 267 111 518 119
558 l16 72 215 0 c172 0 214 -3 214 -13 0 -8 -52 -256 -115 -553 -63 -296
-115 -542 -115 -547 0 -4 95 -6 212 -5 l212 3 233 1095 c128 602 233 1101 233
1108 0 10 -46 12 -212 10 l-211 -3 -78 -365 c-43 -201 -86 -398 -94 -437 l-16
-73 -215 0 c-175 0 -214 2 -214 14 0 7 40 202 90 432 49 231 90 422 90 427 0
12 -231 6 -314 -9z"/>
<path d="M3522 2475 c-210 -47 -388 -199 -504 -429 -100 -198 -154 -434 -145
-636 7 -157 31 -231 99 -305 87 -95 194 -135 363 -135 227 0 409 81 591 264
l92 91 6 -61 c13 -128 64 -211 160 -262 46 -25 61 -27 161 -27 128 0 176 17
283 97 42 32 62 42 58 31 -2 -10 -10 -44 -17 -75 l-12 -56 -61 -22 c-124 -45
-238 -110 -303 -173 -84 -80 -118 -150 -117 -237 2 -172 95 -269 279 -289 138
-16 265 16 361 90 126 97 185 220 244 511 l22 107 52 17 c83 27 185 84 243
137 86 79 189 254 218 370 l7 27 -59 0 -60 0 -38 -90 c-63 -154 -145 -244
-276 -304 -29 -14 -55 -24 -56 -22 -2 2 62 308 142 681 80 373 145 680 145
682 0 2 -96 3 -213 3 l-212 0 -103 -487 c-112 -531 -126 -576 -206 -658 -46
-49 -109 -72 -154 -57 -34 11 -62 64 -62 119 0 30 165 843 215 1061 l5 22
-213 0 -213 0 -99 -472 -99 -473 -85 -85 c-160 -158 -267 -210 -435 -210 -76
0 -98 4 -130 23 -66 37 -80 72 -84 213 l-4 123 38 6 c188 28 344 97 454 202
87 82 132 149 166 249 23 69 26 91 22 179 -3 87 -7 106 -31 147 -34 58 -66 84
-131 104 -73 22 -227 27 -304 9z m231 -185 c34 -66 5 -222 -64 -336 -67 -111
-203 -210 -305 -222 l-45 -5 7 39 c13 73 72 241 118 335 75 154 155 232 231
227 34 -3 43 -8 58 -38z m867 -1488 c0 -34 -38 -170 -60 -214 -12 -24 -36 -58
-53 -75 -63 -67 -167 -30 -167 59 0 77 62 146 186 208 91 46 94 46 94 22z"/>
</g>
</svg>
