<?xml version="1.0" standalone="no"?>
<!DOCTYPE svg PUBLIC "-//W3C//DTD SVG 20010904//EN"
 "http://www.w3.org/TR/2001/REC-SVG-20010904/DTD/svg10.dtd">
<svg version="1.0" xmlns="http://www.w3.org/2000/svg"
 width="16.000000pt" height="16.000000pt" viewBox="0 0 16.000000 16.000000"
 preserveAspectRatio="xMidYMid meet">
<metadata>
Created by potrace 1.11, written by Peter Selinger 2001-2013
</metadata>
<g transform="translate(0.000000,16.000000) scale(0.002500,-0.002500)"
fill="#000000" stroke="none">
<path d="M1789 6024 c-293 -63 -498 -272 -499 -511 -1 -172 71 -300 315 -563
185 -199 262 -325 290 -474 37 -193 0 -337 -111 -435 -69 -60 -140 -84 -239
-79 -135 7 -225 74 -260 192 -52 174 35 320 214 362 31 8 71 14 89 14 39 0 42
21 12 81 -92 179 -431 149 -584 -51 -51 -67 -72 -113 -90 -202 -20 -96 -20
-165 -1 -246 43 -181 170 -306 370 -364 71 -21 100 -23 265 -22 157 1 197 4
265 22 221 61 409 202 495 372 75 148 100 361 61 522 -46 193 -122 305 -356
518 -212 193 -268 267 -294 388 -32 150 12 267 123 324 50 26 185 37 239 19
82 -28 127 -94 127 -189 0 -94 -25 -159 -81 -216 -27 -27 -46 -53 -43 -58 23
-37 159 -61 218 -38 46 17 103 78 131 141 25 56 27 70 23 158 -4 111 -25 165
-88 230 -82 84 -206 121 -402 120 -68 0 -153 -7 -189 -15z"/>
<path d="M3165 5293 c-208 -46 -378 -195 -503 -440 -91 -180 -137 -353 -148
-558 -15 -299 98 -487 319 -525 167 -30 348 47 477 202 29 35 52 54 54 46 38
-136 68 -183 137 -219 106 -54 261 -45 396 21 65 32 95 55 152 116 40 42 73
75 75 73 1 -2 8 -23 14 -46 39 -135 195 -218 364 -194 83 12 158 44 234 102
l61 46 -16 -75 -17 -75 -54 -19 c-30 -10 -102 -41 -160 -70 -79 -39 -119 -66
-165 -113 -86 -86 -110 -139 -110 -240 0 -44 6 -97 14 -119 20 -57 73 -110
143 -141 53 -24 80 -29 169 -33 168 -7 272 32 378 142 95 100 135 191 186 424
18 85 35 155 37 156 1 1 38 15 81 30 99 36 178 88 247 162 81 88 167 242 193
347 l7 27 -64 0 c-61 0 -64 -1 -70 -27 -4 -16 -27 -70 -52 -121 -57 -117 -129
-193 -235 -246 -40 -20 -75 -33 -77 -28 -2 6 62 316 143 691 80 375 145 686
145 691 0 6 -80 10 -215 10 -214 0 -215 0 -220 -22 -3 -13 -52 -242 -109 -509
-103 -482 -114 -522 -174 -611 -43 -66 -134 -107 -192 -86 -40 13 -65 80 -56
147 6 47 211 1026 222 1064 5 16 -10 17 -213 17 l-219 0 -98 -462 c-54 -255
-106 -494 -118 -533 -22 -78 -54 -138 -100 -191 -42 -47 -77 -64 -137 -64 -41
0 -56 5 -82 28 -55 49 -53 66 70 652 61 289 113 535 116 548 l5 22 -220 0
c-186 0 -220 -2 -220 -15 0 -7 -5 -38 -12 -67 -11 -53 -11 -53 -20 -22 -10 40
-66 90 -115 103 -37 11 -208 13 -248 4z m258 -184 c44 -12 77 -57 77 -104 -1
-52 -147 -720 -169 -770 -48 -109 -133 -175 -226 -177 -54 -1 -89 20 -120 73
-30 51 -28 274 4 418 67 304 204 528 345 561 44 11 47 11 89 -1z m1302 -1531
c-29 -146 -73 -248 -125 -292 -35 -29 -40 -30 -92 -16 -46 13 -68 43 -68 93 0
76 63 146 186 207 99 49 108 50 99 8z"/>
<path d="M1835 3023 c-61 -9 -189 -45 -263 -74 -293 -117 -507 -303 -600 -523
-23 -53 -26 -75 -27 -176 0 -100 3 -120 22 -157 43 -80 143 -133 252 -133 37
0 42 2 36 18 -39 92 -46 227 -20 360 36 177 161 350 320 441 41 24 78 42 80
39 2 -2 -94 -463 -213 -1023 l-218 -1020 215 -3 c117 -1 215 -1 217 1 2 2 55
248 119 548 64 299 118 552 121 562 5 15 25 17 225 17 120 0 219 -2 219 -5 0
-9 -230 -1088 -236 -1107 -5 -17 10 -18 215 -18 122 0 221 4 221 8 0 5 106
507 235 1116 129 609 235 1114 235 1122 0 12 -37 14 -214 14 -213 0 -214 0
-219 -22 -9 -34 -187 -867 -187 -873 0 -3 -99 -5 -220 -5 -179 0 -220 3 -220
14 0 10 140 672 179 849 l9 37 -127 -1 c-69 -1 -139 -4 -156 -6z"/>
<path d="M3595 2300 c-156 -18 -299 -93 -416 -216 -74 -79 -112 -136 -169
-257 -100 -210 -135 -358 -135 -577 0 -200 19 -270 97 -355 90 -99 200 -139
378 -138 242 2 431 90 617 287 l71 74 7 -61 c16 -140 72 -225 177 -273 54 -24
76 -28 148 -28 109 1 171 21 272 90 43 29 78 49 78 44 0 -20 -24 -116 -32
-126 -5 -6 -36 -22 -71 -34 -121 -43 -238 -111 -302 -175 -75 -73 -108 -138
-113 -221 -13 -199 116 -314 352 -314 212 0 365 99 458 296 34 73 83 255 110
407 2 13 29 28 88 51 179 67 285 167 380 356 27 53 70 162 70 177 0 1 -28 3
-63 3 l-62 0 -30 -77 c-39 -103 -112 -211 -177 -261 -68 -52 -162 -97 -166
-79 -1 7 63 319 143 694 80 374 145 683 145 687 0 3 -97 5 -217 4 l-216 -3
-107 -500 c-59 -275 -116 -521 -128 -548 -61 -137 -163 -208 -248 -172 -36 15
-54 59 -53 125 0 19 51 274 112 565 l113 530 -214 3 c-118 1 -216 1 -218 -1
-2 -1 -49 -219 -104 -482 -90 -426 -105 -484 -129 -515 -39 -49 -215 -195
-264 -219 -115 -55 -288 -69 -367 -29 -71 36 -84 70 -88 219 l-4 126 74 11
c243 36 471 188 562 373 132 269 53 509 -177 534 -103 11 -123 12 -182 5z
m168 -182 c38 -44 16 -227 -41 -332 -37 -71 -155 -187 -222 -219 -67 -33 -150
-47 -150 -26 0 56 75 270 138 392 90 177 211 258 275 185z m893 -1535 c-2 -10
-10 -45 -17 -78 -22 -112 -85 -226 -136 -246 -34 -13 -98 6 -118 34 -19 27
-19 89 -1 126 24 46 104 111 179 147 82 38 100 41 93 17z"/>
</g>
</svg>
